<?xml version="1.0" encoding="UTF-8" standalone="no"?>
<!-- Generator: Adobe Illustrator 24.0.3, SVG Export Plug-In . SVG Version: 6.00 Build 0)  -->

<svg
   version="1.1"
   id="svg2"
   x="0px"
   y="0px"
   viewBox="0 0 274 274"
   xml:space="preserve"
   sodipodi:docname="logo-tiobe.svg"
   width="274"
   height="274"
   inkscape:version="1.2.2 (732a01da63, 2022-12-09)"
   xmlns:inkscape="http://www.inkscape.org/namespaces/inkscape"
   xmlns:sodipodi="http://sodipodi.sourceforge.net/DTD/sodipodi-0.dtd"
   xmlns="http://www.w3.org/2000/svg"
   xmlns:svg="http://www.w3.org/2000/svg"><defs
   id="defs3159"><clipPath
     clipPathUnits="userSpaceOnUse"
     id="clipPath3215"><rect
       style="fill:#287ac8;stroke:#287ac8;stroke-width:0.8"
       id="rect3217"
       width="295.36273"
       height="342.73221"
       x="-55.728813"
       y="-668.65625"
       transform="scale(1,-1)" /></clipPath></defs><sodipodi:namedview
   id="namedview3157"
   pagecolor="#ffffff"
   bordercolor="#000000"
   borderopacity="0.25"
   inkscape:showpageshadow="2"
   inkscape:pageopacity="0.0"
   inkscape:pagecheckerboard="0"
   inkscape:deskcolor="#d1d1d1"
   showgrid="false"
   inkscape:zoom="0.60904088"
   inkscape:cx="528.70014"
   inkscape:cy="175.68607"
   inkscape:window-width="1920"
   inkscape:window-height="1129"
   inkscape:window-x="1912"
   inkscape:window-y="-7"
   inkscape:window-maximized="1"
   inkscape:current-layer="svg2" />
<style
   type="text/css"
   id="style3081">
	.st0{fill:#287AC8;}
	.st1{fill:#FFFFFF;}
	.st2{fill:#231F20;}
</style>
<g
   id="g10"
   transform="matrix(1.25,0,0,-1.25,0,744.1)"
   clip-path="url(#clipPath3215)">
	<g
   id="g12"
   transform="translate(227.5415,430.0071)">
		<path
   id="path14"
   class="st0"
   d="M -117.9,165.3 -227.5,55.7 -117.9,-54 -8.3,55.7 Z" />
	</g>
	<g
   id="g16"
   transform="translate(232.303,266.2556)">
		<path
   id="path18"
   class="st1"
   d="m -117.9,165.3 h 23.3 l -16.8,25.5 -11.8,-17.6 z" />
	</g>
	<g
   id="g20"
   transform="translate(216.6609,360.5909)">
		<path
   id="path22"
   class="st2"
   d="m -117.9,165.3 h -40.5 v -16.5 h 28 l 11.4,-17 11.5,17.6 z" />
	</g>
	<g
   id="g24"
   transform="translate(227.047,309.5588)">
		<path
   id="path26"
   class="st2"
   d="m -117.9,165.3 -11.8,-17.8 -16.8,-25.5 h 23.3 l 5.3,7.9 11.8,17.6 11.6,17.3 -11.8,18.1 z" />
	</g>
	<g
   id="g28"
   transform="translate(237.4289,360.5909)">
		<path
   id="path30"
   class="st1"
   d="m -117.9,165.3 -10.4,-15.9 -11.5,-17.6 -11.8,-18.1 11.6,-17.3 11.5,17.5 v 0 l 0.2,0.4 11.5,17.6 11.3,17 h 28 v 16.5 h -40.4 z" />
	</g>
	<g
   id="g32"
   transform="translate(442.3815,343.7097)">
		<path
   id="path34"
   class="st2"
   d="m -117.9,165.3 h -24.7 v -77 h -21.8 v 76.9 h -24.5 V 182 h 71 z" />
	</g>
	<path
   id="path36"
   class="st2"
   d="m 356.4,432 h -21.7 v 93.7 h 21.7 z" />
</g>

</svg>
