<?xml version="1.0" encoding="UTF-8" standalone="no"?>
<!-- Created with Inkscape (http://www.inkscape.org/) -->

<svg
   width="16"
   height="16"
   viewBox="0 0 4.2333332 4.2333333"
   version="1.1"
   id="svg1"
   xml:space="preserve"
   inkscape:version="1.3 (0e150ed6c4, 2023-07-21)"
   sodipodi:docname="tics-cancel_dark.svg"
   inkscape:export-filename="tics-cancel.png"
   inkscape:export-xdpi="96"
   inkscape:export-ydpi="96"
   xmlns:inkscape="http://www.inkscape.org/namespaces/inkscape"
   xmlns:sodipodi="http://sodipodi.sourceforge.net/DTD/sodipodi-0.dtd"
   xmlns="http://www.w3.org/2000/svg"
   xmlns:svg="http://www.w3.org/2000/svg"><sodipodi:namedview
     id="namedview1"
     pagecolor="#ffffff"
     bordercolor="#000000"
     borderopacity="0.25"
     inkscape:showpageshadow="2"
     inkscape:pageopacity="0.0"
     inkscape:pagecheckerboard="0"
     inkscape:deskcolor="#d1d1d1"
     inkscape:document-units="mm"
     shape-rendering="auto"
     showgrid="true"
     inkscape:zoom="22.627417"
     inkscape:cx="14.473592"
     inkscape:cy="17.257825"
     inkscape:window-width="2560"
     inkscape:window-height="1369"
     inkscape:window-x="1912"
     inkscape:window-y="-8"
     inkscape:window-maximized="1"
     inkscape:current-layer="g11"><inkscape:grid
       id="grid1"
       units="px"
       originx="0"
       originy="0"
       spacingx="0.26458332"
       spacingy="0.26458333"
       empcolor="#0099e5"
       empopacity="0.30196078"
       color="#0099e5"
       opacity="0.14901961"
       empspacing="5"
       dotted="false"
       gridanglex="30"
       gridanglez="30"
       visible="true"
       enabled="false" /></sodipodi:namedview><defs
     id="defs1"><inkscape:path-effect
       effect="powerclip"
       id="path-effect29"
       is_visible="true"
       lpeversion="1"
       inverse="true"
       flatten="false"
       hide_clip="false"
       message="Use fill-rule evenodd on &lt;b&gt;fill and stroke&lt;/b&gt; dialogue if no flatten result after convert clip to paths." /><inkscape:path-effect
       effect="powerclip"
       id="path-effect16"
       is_visible="true"
       lpeversion="1"
       inverse="true"
       flatten="false"
       hide_clip="false"
       message="Use fill-rule evenodd on &lt;b&gt;fill and stroke&lt;/b&gt; dialogue if no flatten result after convert clip to paths." /><inkscape:path-effect
       effect="powerclip"
       id="path-effect10"
       is_visible="true"
       lpeversion="1"
       inverse="true"
       flatten="false"
       hide_clip="false"
       message="Use fill-rule evenodd on &lt;b&gt;fill and stroke&lt;/b&gt; dialogue if no flatten result after convert clip to paths." /><inkscape:path-effect
       effect="powerclip"
       id="path-effect5"
       is_visible="true"
       lpeversion="1"
       inverse="false"
       flatten="false"
       hide_clip="false"
       message="Use fill-rule evenodd on &lt;b&gt;fill and stroke&lt;/b&gt; dialogue if no flatten result after convert clip to paths." /><inkscape:path-effect
       effect="powerclip"
       id="path-effect3"
       is_visible="true"
       lpeversion="1"
       inverse="true"
       flatten="false"
       hide_clip="false"
       message="Use fill-rule evenodd on &lt;b&gt;fill and stroke&lt;/b&gt; dialogue if no flatten result after convert clip to paths." /><inkscape:path-effect
       effect="fillet_chamfer"
       id="path-effect2"
       is_visible="true"
       lpeversion="1"
       nodesatellites_param="F,0,0,1,0,0.26458333,0,1 @ F,0,0,1,0,0.26458333,0,1 @ F,0,0,1,0,0.26458333,0,1 @ F,0,0,1,0,0.26458333,0,1"
       radius="1"
       unit="px"
       method="auto"
       mode="F"
       chamfer_steps="1"
       flexible="false"
       use_knot_distance="true"
       apply_no_radius="true"
       apply_with_radius="true"
       only_selected="false"
       hide_knots="false" /><inkscape:path-effect
       effect="fillet_chamfer"
       id="path-effect1"
       is_visible="true"
       lpeversion="1"
       nodesatellites_param="F,0,0,1,0,0.26458333,0,1 @ F,0,0,1,0,0.26458333,0,1 @ F,0,0,1,0,0.26458333,0,1 @ F,0,0,1,0,0.26458333,0,1"
       radius="1"
       unit="px"
       method="auto"
       mode="F"
       chamfer_steps="1"
       flexible="false"
       use_knot_distance="true"
       apply_no_radius="true"
       apply_with_radius="true"
       only_selected="false"
       hide_knots="false" /><filter
       id="mask-powermask-path-effect3_inverse"
       inkscape:label="filtermask-powermask-path-effect3"
       style="color-interpolation-filters:sRGB"
       height="100"
       width="100"
       x="-50"
       y="-50"><feColorMatrix
         id="mask-powermask-path-effect3_primitive1"
         values="1"
         type="saturate"
         result="fbSourceGraphic" /><feColorMatrix
         id="mask-powermask-path-effect3_primitive2"
         values="-1 0 0 0 1 0 -1 0 0 1 0 0 -1 0 1 0 0 0 1 0 "
         in="fbSourceGraphic" /></filter><clipPath
       clipPathUnits="userSpaceOnUse"
       id="clipPath3"><rect
         style="display:block;fill:#ffffff;fill-opacity:1;stroke-width:2.3215;stroke-linejoin:round"
         id="rect3"
         width="5.3897438"
         height="7"
         x="10"
         y="9" /></clipPath><clipPath
       clipPathUnits="userSpaceOnUse"
       id="clipPath16"><path
         id="path16"
         style="display:none;fill:#afb1b3;fill-opacity:1;stroke-width:1.00157;stroke-linejoin:round;stroke-dasharray:none"
         d="M 8.9999999,8.9999997 V 12 H 11 v 3.999999 h 3 V 12 h 2 V 8.9999997 H 9.9989321 Z"
         sodipodi:nodetypes="cccccccccc" /><path
         id="lpe_path-effect16"
         style="fill:#afb1b3;fill-opacity:1;stroke-width:1.00157;stroke-linejoin:round;stroke-dasharray:none"
         class="powerclip"
         d="M -4,-4 H 20.000784 V 20.000784 H -4 Z M 8.9999999,8.9999997 V 12 H 11 v 3.999999 h 3 V 12 h 2 V 8.9999997 H 9.9989321 Z" /></clipPath><clipPath
       clipPathUnits="userSpaceOnUse"
       id="clipPath29"><path
         id="path29"
         style="display:none;fill:#3592c4;stroke-width:2.4378;stroke-linecap:square;paint-order:stroke fill markers"
         d="M 11.303626,3.6122268 12.387083,4.6959276 4.6966183,12.387773 3.6129175,11.304316 Z"
         sodipodi:nodetypes="ccccc" /><path
         id="lpe_path-effect29"
         style="display:block;fill:#3592c4;stroke-width:2.4378;stroke-linecap:square;paint-order:stroke fill markers"
         class="powerclip"
         d="M -4,-4 H 20.000784 V 20.000784 H -4 Z M 11.303626,3.6122268 3.6129175,11.304316 4.6966183,12.387773 12.387083,4.6959276 Z" /></clipPath></defs><g
     inkscape:label="Layer 1"
     inkscape:groupmode="layer"
     id="layer1"><g
       style="fill:none"
       id="g1"
       transform="scale(0.26458333)"
       clip-path="url(#clipPath16)"
       inkscape:path-effect="#path-effect16"><g
         style="fill:#c75450;fill-opacity:1;stroke:none;stroke-opacity:1;stroke-width:0.50000001;stroke-dasharray:none;stroke-linejoin:miter"
         id="g4"
         clip-path="url(#clipPath29)"
         inkscape:path-effect="#path-effect29"><path
           id="path9"
           d="M 8.0000001,1 A 7.008,7.008 0 0 0 7.0039063,1.0722656 7.008,7.008 0 0 0 6.029297,1.2851563 7.008,7.008 0 0 0 5.0937501,1.6347656 7.008,7.008 0 0 0 4.2167969,2.1132813 7.008,7.008 0 0 0 3.4179688,2.7128907 7.008,7.008 0 0 0 2.7128907,3.4179688 7.008,7.008 0 0 0 2.1132813,4.2167969 7.008,7.008 0 0 0 1.6347656,5.0937501 7.008,7.008 0 0 0 1.2851563,6.029297 7.008,7.008 0 0 0 1.0722656,7.0039063 7.008,7.008 0 0 0 1,8.0000001 7,7 0 0 0 1.6328125,10.908203 7,7 0 0 0 3.4160157,13.291016 7,7 0 0 0 6.0273438,14.716797 7,7 0 0 0 8.9960939,14.929688 7,7 0 0 0 11.785156,13.888672 7,7 0 0 0 13.888672,11.785156 7,7 0 0 0 14.929688,8.9960939 7,7 0 0 0 14.716797,6.0273438 7,7 0 0 0 13.291016,3.4160157 7,7 0 0 0 10.908203,1.6328125 7,7 0 0 0 8.0000001,1 Z"
           style=""
           inkscape:original-d="M 8.0000001 1 A 7.008 7.008 0 0 0 7.0039063 1.0722656 A 7.008 7.008 0 0 0 6.029297 1.2851563 A 7.008 7.008 0 0 0 5.0937501 1.6347656 A 7.008 7.008 0 0 0 4.2167969 2.1132813 A 7.008 7.008 0 0 0 3.4179688 2.7128907 A 7.008 7.008 0 0 0 2.7128907 3.4179688 A 7.008 7.008 0 0 0 2.1132813 4.2167969 A 7.008 7.008 0 0 0 1.6347656 5.0937501 A 7.008 7.008 0 0 0 1.2851563 6.029297 A 7.008 7.008 0 0 0 1.0722656 7.0039063 A 7.008 7.008 0 0 0 1 8.0000001 A 7 7 0 0 0 1.6328125 10.908203 A 7 7 0 0 0 3.4160157 13.291016 A 7 7 0 0 0 6.0273438 14.716797 A 7 7 0 0 0 8.9960939 14.929688 A 7 7 0 0 0 11.785156 13.888672 A 7 7 0 0 0 13.888672 11.785156 A 7 7 0 0 0 14.929688 8.9960939 A 7 7 0 0 0 14.716797 6.0273438 A 7 7 0 0 0 13.291016 3.4160157 A 7 7 0 0 0 10.908203 1.6328125 A 7 7 0 0 0 8.0000001 1 z " /></g></g><g
       id="g2"
       transform="matrix(0.26458333,0,0,0.26458333,-0.2645833,0)"
       style="fill:none;stroke-width:1.00157481;stroke-dasharray:none" /><g
       id="g11"
       transform="matrix(0.26458333,0,0,0.26458333,-0.2645833,0)"
       style="fill:none;stroke-width:1.00157481;stroke-dasharray:none"><path
         id="path11"
         style="fill:#afb1b3;fill-opacity:1;stroke-width:1.00157;stroke-linejoin:round;stroke-dasharray:none"
         d="m 11,10 v 1 h 2.000219 l -4.38e-4,4 h 1 L 14.000219,11 16,11 v -1 z"
         sodipodi:nodetypes="ccccccccc" /></g></g></svg>
