<?xml version="1.0" encoding="UTF-8" standalone="no"?>
<svg
   width="16"
   height="16"
   viewBox="0 0 16 16"
   fill="currentColor"
   version="1.1"
   id="svg1"
   sodipodi:docname="tics-config-solid_dark.svg"
   xml:space="preserve"
   inkscape:version="1.3 (0e150ed6c4, 2023-07-21)"
   xmlns:inkscape="http://www.inkscape.org/namespaces/inkscape"
   xmlns:sodipodi="http://sodipodi.sourceforge.net/DTD/sodipodi-0.dtd"
   xmlns="http://www.w3.org/2000/svg"
   xmlns:svg="http://www.w3.org/2000/svg"><defs
     id="defs1"><inkscape:path-effect
       effect="powerclip"
       id="path-effect7"
       is_visible="true"
       lpeversion="1"
       inverse="true"
       flatten="false"
       hide_clip="false"
       message="Use fill-rule evenodd on &lt;b&gt;fill and stroke&lt;/b&gt; dialogue if no flatten result after convert clip to paths." /><inkscape:path-effect
       effect="powerclip"
       id="path-effect2"
       is_visible="true"
       lpeversion="1"
       inverse="true"
       flatten="false"
       hide_clip="false"
       message="Use fill-rule evenodd on &lt;b&gt;fill and stroke&lt;/b&gt; dialogue if no flatten result after convert clip to paths." /><inkscape:path-effect
       effect="powerclip"
       id="path-effect14"
       is_visible="true"
       lpeversion="1"
       inverse="true"
       flatten="false"
       hide_clip="false"
       message="Use fill-rule evenodd on &lt;b&gt;fill and stroke&lt;/b&gt; dialogue if no flatten result after convert clip to paths." /><inkscape:path-effect
       effect="powerclip"
       id="path-effect13"
       is_visible="true"
       lpeversion="1"
       inverse="true"
       flatten="false"
       hide_clip="false"
       message="Use fill-rule evenodd on &lt;b&gt;fill and stroke&lt;/b&gt; dialogue if no flatten result after convert clip to paths." /><clipPath
       clipPathUnits="userSpaceOnUse"
       id="clipPath12"><path
         id="path13"
         style="display:block;fill:#287ac8;fill-opacity:1;stroke-width:2.43967;stroke-linejoin:round"
         d="m 8,8 v 4 h 1.9 v 3 H 14 v -3 h 2 V 8 Z"
         sodipodi:nodetypes="ccccccccc" /></clipPath><clipPath
       clipPathUnits="userSpaceOnUse"
       id="clipPath7"><path
         id="path7"
         style="display:none;fill:#287a6c;fill-opacity:1;stroke-width:2.43967;stroke-linejoin:round"
         d="m 8,8 v 4 h 1.9 v 3 H 14 v -3 h 2 V 8 Z"
         sodipodi:nodetypes="ccccccccc" /><path
         id="lpe_path-effect7"
         style="display:block;fill:#287a6c;fill-opacity:1;stroke-width:2.43967;stroke-linejoin:round"
         class="powerclip"
         d="M -3.5990017,-3.9999999 H 19.599002 V 20 H -3.5990017 Z M 8,8 v 4 h 1.9 v 3 H 14 v -3 h 2 V 8 Z" /></clipPath></defs><sodipodi:namedview
     id="namedview1"
     pagecolor="#ffffff"
     bordercolor="#000000"
     borderopacity="0.25"
     inkscape:showpageshadow="2"
     inkscape:pageopacity="0.0"
     inkscape:pagecheckerboard="0"
     inkscape:deskcolor="#d1d1d1"
     inkscape:zoom="45.254834"
     inkscape:cx="9.9989318"
     inkscape:cy="11.346854"
     inkscape:window-width="1920"
     inkscape:window-height="1129"
     inkscape:window-x="1912"
     inkscape:window-y="-7"
     inkscape:window-maximized="1"
     inkscape:current-layer="svg1" /><path
     d="m 14.562413,5.5563564 c 0.08748,0.2379412 0.01367,0.5032305 -0.175034,0.6727872 l -1.18421,1.0775605 c 0.03007,0.2269962 0.04648,0.4594603 0.04648,0.6946675 0,0.2351979 -0.0164,0.4676713 -0.04648,0.6946676 l 1.18421,1.0775511 c 0.188713,0.169566 0.262555,0.4348557 0.175034,0.6727867 -0.120338,0.325454 -0.26528,0.637238 -0.432112,0.938077 l -0.128539,0.221528 c -0.180502,0.300839 -0.382893,0.585266 -0.604422,0.853289 -0.161355,0.196914 -0.429378,0.262555 -0.670053,0.185979 l -1.523342,-0.484084 c -0.36648,0.281692 -0.771244,0.5169 -1.203357,0.694667 L 9.6587224,14.417468 C 9.604045,14.666345 9.4125796,14.863259 9.1609691,14.904277 8.7835533,14.967156 8.3951926,15 7.9986303,15 7.6020679,15 7.2137167,14.967193 6.8362914,14.904277 6.5846809,14.863269 6.3932439,14.666345 6.3385381,14.417468 L 5.9966815,12.855833 C 5.56456,12.678066 5.1597961,12.442858 4.7933158,12.161166 l -1.5206081,0.486818 c -0.240675,0.07655 -0.5086888,0.0085 -0.6700533,-0.185979 C 2.3811259,12.193982 2.178744,11.909555 1.9982424,11.608716 L 1.8697033,11.387188 C 1.7028711,11.086349 1.5579193,10.774565 1.4375818,10.449111 1.3500978,10.211179 1.4239124,9.9458902 1.6126156,9.7763241 L 2.7968348,8.6987731 C 2.7667622,8.4690428 2.750359,8.2365694 2.750359,8.0013716 c 0,-0.2352072 0.016403,-0.4676713 0.046476,-0.6946675 L 1.6126156,6.2291436 C 1.4239124,6.0595869 1.3500695,5.7942976 1.4375818,5.5563564 1.5579193,5.2309031 1.7028711,4.9191285 1.8697033,4.6182894 L 1.9982424,4.3967609 C 2.178744,4.0959218 2.3811259,3.811486 2.6026544,3.5434627 2.7640189,3.3465485 3.0320327,3.2809167 3.2727077,3.3574934 L 4.7960497,3.841568 C 5.16253,3.5598754 5.5672939,3.3246776 5.9994154,3.1469005 L 6.3412814,1.5852749 C 6.3959594,1.3363983 6.5874148,1.139484 6.8390347,1.0984571 c 0.3774158,-0.065613 0.7657671,-0.098457 1.1623294,-0.098457 0.3965624,0 0.7849231,0.032806 1.1623389,0.095723 0.2516105,0.041008 0.443057,0.2379318 0.4977533,0.4868084 l 0.3418657,1.5616351 c 0.432113,0.1777676 0.836886,0.4129749 1.203357,0.6946675 L 12.73003,3.3547596 c 0.240666,-0.076549 0.508689,-0.00848 0.670053,0.1859693 0.22152,0.2680232 0.423911,0.5524495 0.604413,0.8532981 l 0.128539,0.2215191 c 0.166832,0.3008484 0.311784,0.612623 0.432112,0.9380764 z M 8.0013641,10.189299 a 2.1879277,2.1879277 0 1 0 0,-4.3758549 2.1879277,2.1879277 0 1 0 0,4.3758549 z"
     id="path1"
     style="stroke-width:0.0273491;fill:#afb1b3;fill-opacity:1"
     clip-path="url(#clipPath7)"
     inkscape:path-effect="#path-effect7"
     inkscape:original-d="m 14.562413,5.5563564 c 0.08748,0.2379412 0.01367,0.5032305 -0.175034,0.6727872 l -1.18421,1.0775605 c 0.03007,0.2269962 0.04648,0.4594603 0.04648,0.6946675 0,0.2351979 -0.0164,0.4676713 -0.04648,0.6946676 l 1.18421,1.0775511 c 0.188713,0.169566 0.262555,0.4348557 0.175034,0.6727867 -0.120338,0.325454 -0.26528,0.637238 -0.432112,0.938077 l -0.128539,0.221528 c -0.180502,0.300839 -0.382893,0.585266 -0.604422,0.853289 -0.161355,0.196914 -0.429378,0.262555 -0.670053,0.185979 l -1.523342,-0.484084 c -0.36648,0.281692 -0.771244,0.5169 -1.203357,0.694667 L 9.6587224,14.417468 C 9.604045,14.666345 9.4125796,14.863259 9.1609691,14.904277 8.7835533,14.967156 8.3951926,15 7.9986303,15 7.6020679,15 7.2137167,14.967193 6.8362914,14.904277 6.5846809,14.863269 6.3932439,14.666345 6.3385381,14.417468 L 5.9966815,12.855833 C 5.56456,12.678066 5.1597961,12.442858 4.7933158,12.161166 l -1.5206081,0.486818 c -0.240675,0.07655 -0.5086888,0.0085 -0.6700533,-0.185979 C 2.3811259,12.193982 2.178744,11.909555 1.9982424,11.608716 L 1.8697033,11.387188 C 1.7028711,11.086349 1.5579193,10.774565 1.4375818,10.449111 1.3500978,10.211179 1.4239124,9.9458902 1.6126156,9.7763241 L 2.7968348,8.6987731 C 2.7667622,8.4690428 2.750359,8.2365694 2.750359,8.0013716 c 0,-0.2352072 0.016403,-0.4676713 0.046476,-0.6946675 L 1.6126156,6.2291436 C 1.4239124,6.0595869 1.3500695,5.7942976 1.4375818,5.5563564 1.5579193,5.2309031 1.7028711,4.9191285 1.8697033,4.6182894 L 1.9982424,4.3967609 C 2.178744,4.0959218 2.3811259,3.811486 2.6026544,3.5434627 2.7640189,3.3465485 3.0320327,3.2809167 3.2727077,3.3574934 L 4.7960497,3.841568 C 5.16253,3.5598754 5.5672939,3.3246776 5.9994154,3.1469005 L 6.3412814,1.5852749 C 6.3959594,1.3363983 6.5874148,1.139484 6.8390347,1.0984571 c 0.3774158,-0.065613 0.7657671,-0.098457 1.1623294,-0.098457 0.3965624,0 0.7849231,0.032806 1.1623389,0.095723 0.2516105,0.041008 0.443057,0.2379318 0.4977533,0.4868084 l 0.3418657,1.5616351 c 0.432113,0.1777676 0.836886,0.4129749 1.203357,0.6946675 L 12.73003,3.3547596 c 0.240666,-0.076549 0.508689,-0.00848 0.670053,0.1859693 0.22152,0.2680232 0.423911,0.5524495 0.604413,0.8532981 l 0.128539,0.2215191 c 0.166832,0.3008484 0.311784,0.612623 0.432112,0.9380764 z M 8.0013641,10.189299 a 2.1879277,2.1879277 0 1 0 0,-4.3758549 2.1879277,2.1879277 0 1 0 0,4.3758549 z" /><path
     id="path6"
     style="display:inline;fill:#287ac8;fill-opacity:1;stroke-width:2.43967;stroke-linejoin:round"
     d="m 9,9 v 2 h 2.000001 v 4 h 2 v -4 h 2 L 15,9 Z"
     sodipodi:nodetypes="ccccccccc" /></svg>
